<svg id="dino" xmlns="http://www.w3.org/2000/svg" viewBox="0 0 553.47 372.74"><path d="M428.68,113.2c-8.78,1.24-17.79,2.69-25.79,6.77a52.19,52.19,0,0,0-19.73,17.37c-8.06,12-19,21.94-26.49,34.39-4.85,8.15-8.68,17.47-7.58,27.15,2.21,16.41,11.27,31.2,12.3,47.85-.73,1.38-2.51.62-3.73.82-11.74-.53-23.4,1.14-35,2.95a483.24,483.24,0,0,0-54,12.47,311,311,0,0,0-57.14,22.42c-7.42,3.87-16,2.21-23.92,1.73-33.11-2.18-66.68-.23-99,7.74C68,300.34,48.5,309.62,29.88,320c-1.85.77-4.95,4.19-1.57,4.93,43.47-1.08,88.18,3.44,128.11,21.71-1.56,11.49,1.18,23.7,8.72,32.68,8.2,9.79,19.32,16.58,30.46,22.54a41.87,41.87,0,0,1,10.56,8.41c3.19,3.56,6.59,7.23,8,11.93a50.22,50.22,0,0,1,2.2,16.56c-.15,6.58-3.15,12.57-4.52,18.91-22,.76-43.9,1.9-65.8,3.62-12.37,1.25-24.85,2.16-37,4.84-3.12.92-6.89,1.41-8.74,4.43,8.31,4.77,18.21,5,27.46,6.4,49.11,5.26,98.55,6.06,147.89,6.95,48.7.36,97.43-.13,146.09-2.23,24.69-1.2,49.43-2.52,73.94-5.89,5.46-.85,11.05-1.61,16.14-3.87,1.28-.39,1.53-1.77,2-2.82-6.55-3.37-14-4-21.13-5.25-22.81-3-45.81-4-68.76-5.39-18.21-.58-36.44-1.65-54.67-1.43a44.94,44.94,0,0,0-17.42-12.56c-15.5-5.86-33.25-6.08-48.61.38a15,15,0,0,1,.75-7.54c5.16-13.24,6.81-27.52,7.32-41.63a10.68,10.68,0,0,1,1.75-5.82c4-6.5,8.13-13.25,9.08-21,.16-1.38.82-2.86,2.31-3.17,5.29-1.47,10.65-3.59,16.25-2.91,1.74.14,3.93.44,4.67,2.31,2.73,6.06,4.47,12.54,7.3,18.55,2.59,3.25,5.74,7.13,10.15,7.58.05-1.77.08-3.54.1-5.3,1.67,2.18,3.3,4.51,5.63,6.05.89.64,2.62,1.23,2.93-.36,1.65-4.71.74-10-1.38-14.47l1.06-.47c1.94,4.44,4.5,9.91,9.82,10.83,2.76-7.54-1.39-15.22-6.8-20.33-5.13-6.33-10.67-12.35-17.42-17,3.14-1.52,5.95-3.59,9-5.26,4.94.45,9.89.73,14.84,1.08,3.6.51,4.37,4.54,5.3,7.42,2.68,7.81,4.69,16.85,12.28,21.47.75-1.64,1.37-3.32,1.95-5,2.16,2.41,4,5.14,6.42,7.3,1.68.61,2.34-1.51,2.89-2.64,1.8-4.34-.92-8.61-1-13A72,72,0,0,0,417.3,372c3.18-2.26,2.11-6.95,1.05-10.1-4.28-9.06-11.21-16.54-18.26-23.53-2.44-2.35-4.92-4.93-8.26-5.92a71.43,71.43,0,0,1-8-2.63c7.94-7.86,15-17.25,17.11-28.47,1.34-9.74,5.75-18.62,9.79-27.46,2.63-5.3,4.94-10.76,7.79-15.94,15.94,5.21,32.51,8,49,10.91,22.26,3.6,44.57,7.61,67.18,8.08,5,.05,10.32.2,15-1.95,4.8-2,7.88-6.31,11.49-9.81,2.84-3.05,6.33-5.6,8.38-9.31-1.07-1.35-2.42-2.5-3.14-4.08-.27-4.06.24-8.36-1.52-12.17a3.33,3.33,0,0,0-4.69-1.3c-3.45,2.52-5.71,6.23-8.57,9.33-2.41.14-5.12-1.42-5.25-4-.38-3.88-.07-8.73-3.74-11.19-4.32.93-6.55,5.45-9.79,8.1-3.07-.85-8.62-1.36-8.29-5.65a22.89,22.89,0,0,0-1.76-9.11c-5.26-1.11-8.31,4.08-12.12,6.61l-2.45-.3c2-2.8,4.27-5.35,6.42-8,3.85.37,8.06-.4,11.69,1,1.31,3.46,1.07,7.93,4.34,10.37,6.28-.52,8.52-8.93,15-8.91,1.89-.1,5-.21,5.28,2.33,1,3.39,1.36,9.16,5.82,9.37,4.15-1.77,5.78-6.64,9.81-8.58,3.57-1.49,7.81.8,11.19-1.47,2.44-1.56,2.33-4.88,2.47-7.43a107,107,0,0,0-4.14-30.56c-1.77-6.38-6.4-11.37-11-15.94-3.85-3.56-7.92-7.14-12.9-9l2,0a51.36,51.36,0,0,0,.86-24.42c-1.08-4-4.48-6.89-8.22-8.31-1.44-.22-2.85-.45-4.24-.78-4-.73-8-1.3-11.91-2.3-6.76,1.27-13.93-.46-20.47,2.12-2.69.89-4.6,3.06-6.67,4.88-3.47-2.7-6.16-6.26-9.72-8.85-13-10.32-29.48-16.45-46.13-16.29C441.27,111.16,435.17,114.7,428.68,113.2Z" transform="translate(-26.8 -111.27)" fill="#fff"/><path d="M483.52,221.56c4.86.62,9.84.49,14.61,1.69.11,1.56.21,3.12.31,4.69C493.39,226,488.38,223.92,483.52,221.56Z" transform="translate(-26.8 -111.27)" fill="#fff"/><path d="M501.57,226.26a75.53,75.53,0,0,0,8.77-.21c-1.63,1.53-3.22,3.09-4.79,4.67-1.49-.51-2.95-1.07-4.4-1.66C501.26,228.36,501.47,227,501.57,226.26Z" transform="translate(-26.8 -111.27)" fill="#fff"/><path d="M530.05,227.53a64.89,64.89,0,0,0,7.09,1.25,38.51,38.51,0,0,1-5.58,4.77A39.28,39.28,0,0,1,530.05,227.53Z" transform="translate(-26.8 -111.27)" fill="#fff"/><path d="M513.52,234c2.07-2.43,4.23-4.9,7.24-6.18.76,3.08,1.27,6.21,1.8,9.33C519.56,236,516.54,235,513.52,234Z" transform="translate(-26.8 -111.27)" fill="#fff"/><path d="M554.31,229.75c2.28.36,4.56.76,6.86,1a57.53,57.53,0,0,1-5.06,5.41c-.71-1.59-1.7-3.11-1.91-4.87C554.23,230.92,554.29,230.14,554.31,229.75Z" transform="translate(-26.8 -111.27)" fill="#fff"/><path d="M534.79,241.62a32.25,32.25,0,0,1,7.71-6.3,44.65,44.65,0,0,1,1.64,9.77C541,244,537.92,242.74,534.79,241.62Z" transform="translate(-26.8 -111.27)" fill="#fff"/><path d="M553.75,248.72c2.55-3.19,5-6.8,8.92-8.43a31.09,31.09,0,0,1,1.4,11.69C560.58,251.06,557.14,249.94,553.75,248.72Z" transform="translate(-26.8 -111.27)" fill="#fff"/><path d="M256.55,436.84c-.32-8.57.43-17.34,3.25-25.46a71.18,71.18,0,0,1,3,26.42c.23,2.66-3,2.66-4.8,2.62C256.44,440,256.73,438,256.55,436.84Z" transform="translate(-26.8 -111.27)" fill="#fff"/><path d="M404.08,135.23c4.52-1.59,7,4.22,4.71,7.55a13.14,13.14,0,0,1-6.5,4.46c-2.32.32-4.53-1.57-5.14-3.73C397.92,139.88,400.33,136.25,404.08,135.23Z" transform="translate(-26.8 -111.27)" fill="#497228"/><path d="M418.12,139.1c1.22-1.26,2.89-.38,4.33-.18,0,2.64.67,7-3,7.46C415.41,146.71,414.92,140.63,418.12,139.1Z" transform="translate(-26.8 -111.27)" fill="#497228"/><path d="M408.15,155.22c2.25-2.13,5.11-.5,7.33.72a37.15,37.15,0,0,0-11.27,8.38C403.69,160.73,404.77,157,408.15,155.22Z" transform="translate(-26.8 -111.27)" fill="#497228"/><path d="M390.11,160.27c1.8-2,4.75-1,7.1-1.06.36,3.42-.57,7.33-4,8.92-1.74.52-4.93.78-5.1-1.71A6.28,6.28,0,0,1,390.11,160.27Z" transform="translate(-26.8 -111.27)" fill="#497228"/><path d="M499.11,170.86c1.29.34,2.59.69,3.89,1.06-1.56,2.9-4.08,4.88-7.5,4.81C496.64,174.74,497.87,172.8,499.11,170.86Z" transform="translate(-26.8 -111.27)" fill="#497228"/><path d="M560,196.93c1.06-1.2,2.93-.18,4.11.39,4.11,2.67,3.51,8.15,3.42,12.4.37,3-3.88,5.39-6.13,3.22-2.81-2.15-3.59-5.88-3.46-9.24C558,201.37,557.9,198.5,560,196.93Zm3.08,11.55c1.55,1,2.67-1.13,3.8-1.84-.63-3.11-1.73-6.23-4.6-7.94C559.77,201.46,560.43,206,563.05,208.48Z" transform="translate(-26.8 -111.27)" fill="#497228"/><path d="M377.21,221.31a10.06,10.06,0,0,1,.54-5.43c.9,14.59,12.21,25.35,23.42,33.28-2.91,4.18-5.2,8.73-7.76,13.11-5.1-5.85-8-13.15-11.06-20.17C379.47,235.51,378.3,228.36,377.21,221.31Z" transform="translate(-26.8 -111.27)" fill="#497228"/><path d="M337.06,256.22c1.51-.52,4.24-.52,4.3,1.64,1,2.92-3.14,5.85-5.31,3.39C334.11,260.13,335.2,256.88,337.06,256.22Z" transform="translate(-26.8 -111.27)" fill="#497228"/><path d="M313.14,262.38c2.69-1.69,6.57,1.75,4.68,4.46-1.77,2.33-6,5.3-8.34,2.11C307.49,266,310.49,263.34,313.14,262.38Z" transform="translate(-26.8 -111.27)" fill="#497228"/><path d="M296.12,266.25c5.07-1.39,5.62,6.21,2.74,8.72-2.59,2.44-6.41,5.64-10.14,3.71-2.37-1-2.2-4.17-1.27-6.11A16,16,0,0,1,296.12,266.25Z" transform="translate(-26.8 -111.27)" fill="#497228"/><path d="M326,268.31c3.1-1.24,6.67,1.9,5,5.1-2,3-5.59,5.72-9.4,5.06-2.53-.38-3.5-3.91-2.09-5.83A11.47,11.47,0,0,1,326,268.31Z" transform="translate(-26.8 -111.27)" fill="#497228"/><path d="M307.1,278.28c4.28-.84,6,6.48,1.87,7.74-2.58,2.58-7.05.14-7.1-3.21A9.51,9.51,0,0,1,307.1,278.28Z" transform="translate(-26.8 -111.27)" fill="#497228"/><path d="M262.22,279.25c1.74.12,3.93-.82,5.23.77a6.26,6.26,0,0,1-1.75,4c-1.25.42-2.56-.19-3.8-.32C262,282.2,262.11,280.73,262.22,279.25Z" transform="translate(-26.8 -111.27)" fill="#497228"/><path d="M279.21,290.38c1.62-1.95,6.52-2.25,6.11,1.2a5.62,5.62,0,0,1-7.22,4.78C278.2,294.35,277.47,291.89,279.21,290.38Z" transform="translate(-26.8 -111.27)" fill="#497228"/><path d="M299.33,325.73a21.75,21.75,0,0,1,.93-12.46c1.19,4.51,1.48,9.58,4.61,13.3,3.6,4.15,9,6.26,12.53,10.48,4.25,4.52,6.25,10.9,11.35,14.66,3.69,2.83,8.51,2.88,12.79,4.25,2.35.57,3.51,2.9,4.69,4.78-8.12-1.08-16.94-1-24.06-5.52-6-4-7.83-11.4-12.28-16.71C306.78,333.9,301.18,331.19,299.33,325.73Z" transform="translate(-26.8 -111.27)" fill="#497228"/><path d="M294.45,334.9C293,329,292.92,322.13,297,317.17c-.6,5.62-.24,11.56,3.55,16.09-1.33.54-2.65,1.11-4,1.58Z" transform="translate(-26.8 -111.27)" fill="#497228"/><path d="M202.17,325.28c4.28-1.38,5.4,4.69,3.44,7.4-1,2.83-5.46,4.18-7.14,1.3C197,330.65,199.43,327.08,202.17,325.28Z" transform="translate(-26.8 -111.27)" fill="#497228"/><path d="M159.36,347.43c2.76-7.41,5.45-15.42,11.49-20.86-3.55,11.28-5.82,24.17-.25,35.2,5.24,10.18,15.22,16.41,24.06,23.12,12.38,10,23.53,23.52,24.88,40,.18,8.82,1.07,17.94-1.82,26.45-1.14,4-3.06,8.45-1.4,12.63,3.82,3,8.92,1.1,13.32,1.26,10.65,0,21.31-.18,31.94-1q.26,2.85.46,5.73c-6.73,1.52-13.57-.06-20.36.2-7.71.11-15.55-.16-23-2.3a6,6,0,0,1-4.32-6.07c0-4.28,1.71-8.29,2.74-12.38a53.56,53.56,0,0,0,.75-26.7c-3.66-10-11.22-18.38-20.32-23.83-8.27-4.91-16.92-9.37-24.1-15.85-6-5.22-11.08-11.86-13.34-19.6C158.58,358.24,157.32,352.61,159.36,347.43Z" transform="translate(-26.8 -111.27)" fill="#497228"/><path d="M181.16,329.27c2.24-1.94,5.34-1.07,8-1a13.55,13.55,0,0,1-5.87,14.08c-2.09,2.2-5.11.09-6.62-1.72C174.47,336.4,177.69,331.68,181.16,329.27Z" transform="translate(-26.8 -111.27)" fill="#497228"/><path d="M380.58,332.7c1.71-1.72,4.11.15,6,.59-1.4.56-2.76,1.19-4.11,1.82,3.08,2.74,7.6,5.15,7.81,9.79.29,5.18.28,10.39.06,15.58l0,.18c-1.37-4.54-2-9.34-3.9-13.69-1.18-2.55-4.14-3.79-6.82-3.86-3.75-.14-7.5.23-11.25.22C372.13,339.44,376.6,336.34,380.58,332.7Z" transform="translate(-26.8 -111.27)" fill="#497228"/><path d="M210.94,347.46c-3.06-2.8,2.55-8.2,5.35-5.23,2.28,1.85.71,5.1.24,7.45C214.51,349.42,212.19,349.34,210.94,347.46Z" transform="translate(-26.8 -111.27)" fill="#497228"/><path d="M196,345.36a5.24,5.24,0,0,1,5,5.66c-.56,4.18-1.6,9.08-5.37,11.57a4.47,4.47,0,0,1-5.94-.79C186,356.08,189.31,347,196,345.36Z" transform="translate(-26.8 -111.27)" fill="#497228"/><path d="M175,350.21c5-2.16,7,5.79,3.21,8.14-1.79,2.22-4.13-.27-4.92-2.09A5.81,5.81,0,0,1,175,350.21Z" transform="translate(-26.8 -111.27)" fill="#497228"/><path d="M299.75,370.34c7.26-.44,14.34-2.19,21.43-3.69a61,61,0,0,1-4.79,12.78l-.32.07c-5.37,1.44-10.9,1.87-16.42,2.35-2.72.18-4.69,2.27-7.1,3.29-2.36-.24-4.75-1.79-7.1-.73-4.91,1.35-4.62,8-8.8,10.2-2.26,1.12-5.59.76-6.71,3.46a47.54,47.54,0,0,0-5.78,18.73c-1.65-3.55-3.5-7.14-4-11.06a69.45,69.45,0,0,1,1.9-11.45c1.17-4.94,4.83-8.7,6.84-13.27a39,39,0,0,0,2.36-8.22l.63-.26c1.1-.46,2.2-.91,3.32-1.33C283.38,372.31,291.58,370.83,299.75,370.34Z" transform="translate(-26.8 -111.27)" fill="#497228"/><path d="M281.82,399.84c1.34-2.31,4.19-1.72,6.4-1.66.52,3.27-.57,8.17-4.59,8.31C280.05,406.84,280.41,401.86,281.82,399.84Z" transform="translate(-26.8 -111.27)" fill="#497228"/><path d="M268.58,410.65c.82-1.38,2.59-1.45,3.93-2,.38,1.86,1.35,4.12-.31,5.69C270.2,415.06,266.8,412.71,268.58,410.65Z" transform="translate(-26.8 -111.27)" fill="#497228"/><path d="M369.26,457c18.23-.22,36.46.85,54.67,1.43,22.95,1.35,45.95,2.38,68.76,5.39,7.15,1.23,14.58,1.88,21.13,5.25-.5,1.05-.75,2.43-2,2.82-5.09,2.26-10.68,3-16.14,3.87-24.51,3.37-49.25,4.69-73.94,5.89-48.66,2.1-97.39,2.59-146.09,2.23-49.34-.89-98.78-1.69-147.89-6.95-9.25-1.43-19.15-1.63-27.46-6.4,1.85-3,5.62-3.51,8.74-4.43,12.17-2.68,24.65-3.59,37-4.84,21.9-1.72,43.85-2.86,65.8-3.62-.65,3.61-.82,8.12,2.23,10.74,3,2.35,6.88,2.68,10.45,3.44,14.29,2.13,28.79,1.58,43.19,1.73,11.8-.21,23.8.78,35.4-1.95,14.49-1.74,29.15-.62,43.69-1.12,8.16-3.77,17.31-1.32,25.92-1.27a2.5,2.5,0,0,0,2.53-3.31C374,462.54,371.49,459.8,369.26,457Z" transform="translate(-26.8 -111.27)" fill="#d2d3d5"/><path d="M427.89,122.52c3.83-4.27,8.82-7.8,14.71-8.21,18.3-1.75,37.11,4.64,51.07,16.48,2,1.78,4.16,3.57,5.15,6.15-3-1.82-5.53-4.61-9.15-5a101,101,0,0,0-41.91,3.24c-3.23-1.47-6.42-3-9.74-4.29,1.61,2.39,4.2,3.72,6.66,5a18.66,18.66,0,0,0-9.83,12c-6.6,2.34-12.84,5.54-19.37,8-2.22-1.22-5.08-2.85-7.33-.72-3.38,1.82-4.46,5.51-3.94,9.1-1.65,6-4.42,12.56-1.89,18.79,2.4,4.38,9.71,3.61,11.46-.9.84-4.53,0-10.82,5-13.18,6.06-2.84,12.67-4.35,18.67-7.39,3.67,11.58,13.24,21.22,25.16,24.1,6.29,1.09,12.84,1.64,19.09,0,5.48-1.27,10.09-4.85,13.76-9,3.42.07,5.94-1.91,7.5-4.81q-1.65-2.05-3.24-4.12c1.56-5.27,1.64-10.79,1.57-16.25a8.11,8.11,0,0,0,4-5.29c3.08,4.51,3.24,11,8.31,14-1-3-2.34-6-2.7-9.23a127.41,127.41,0,0,0,33.9,14.38,37.21,37.21,0,0,1,16.84,9.34c4.79,4.62,10,9.37,12,16a103,103,0,0,1,4.56,28c-.14,2.74.31,6.45-2.52,8-4,.71-8-.2-11.92-.76-12.57-2.15-25.36-2.38-38-3.94-15.32-1.64-30.73-1.68-46.08-2.75a12,12,0,0,0-4.1.43,8.75,8.75,0,0,0,3,2.21c25.88,11.57,52.47,21.45,79.21,30.84,2.55.9,5.46,1.05,7.66,2.78.13.34.37,1,.5,1.38a53.66,53.66,0,0,1-18.24,3.29c-12.38-.17-24.83-.84-37-3.37-17.95-3.63-35.91-7.4-53.45-12.74-11.12-3.63-22.19-7.73-32.27-13.76-10.6-6.13-19.83-14.27-30-21.08-4-2.24-9.05-5.4-13.62-2.86-2.84,1.36-3.46,4.69-3.39,7.54l0,1.06-.29.83a10.06,10.06,0,0,0-.54,5.43c1.09,7.05,2.26,14.2,5.14,20.79,3.07,7,6,14.32,11.06,20.17-.11.19-.33.57-.43.76-3.58,6.17-6.39,12.76-10.15,18.83-4.46,7.19-9,14.32-13.59,21.45-3.38,5.49-7.91,10.47-13.86,13.19-6.93,3.23-14.08,5.95-20.95,9.29C331.8,318.5,329.88,310,323,305.4c-3.8-2.95-8.88-3.25-13.44-2.34,4.47,1.15,9.66,1.17,13.06,4.76,7.35,7.37,6.78,18.92,12.87,27.07a87.74,87.74,0,0,0,22.36,20.64c6.66,4.38,11.61,10.66,16.8,16.58-4,3.89-10.26,1.84-14.4,5.38-1.16-.52-2.16-1.7-3.51-1.61a21.11,21.11,0,0,0-4.56,2.67c-1.89-6-2.89-12.29-6-17.81-1.18-1.88-2.34-4.21-4.69-4.78-4.28-1.37-9.1-1.42-12.79-4.25-5.1-3.76-7.1-10.14-11.35-14.66-3.55-4.22-8.93-6.33-12.53-10.48-3.13-3.72-3.42-8.79-4.61-13.3-.09-.46-.29-1.37-.39-1.83a50.79,50.79,0,0,1-2.83,5.73c-4.12,5-4.06,11.78-2.59,17.73l2.13-.06-2.43.77c-9.4,1.45-18.67,3.6-28.15,4.53-3.68-4.8-7.07-10-11.83-13.81a86.31,86.31,0,0,0-11-6.53,18.21,18.21,0,0,0,4.52,3.91,50.59,50.59,0,0,1,21.49,43,37.44,37.44,0,0,1-6.42,19.06c-4.49,6.45-4.72,14.54-6,22-1.27,8.61-3.54,17.16-3.3,25.92,0,3,1,6,.51,9-4,2.21-8,4.58-10.4,8.59,3.31-1.9,6.32-4.33,9.88-5.77,7.36-3.29,15.56-3.68,23.5-3.8-.86,2.33-1.75,4.64-2.62,7-5.65,0-12-1-16.86,2.54,2.89-.31,5.77-.73,8.66-1.1a31,31,0,0,0-4.47,14.1c-10.63.85-21.29,1-31.94,1-4.4-.16-9.5,1.73-13.32-1.26-1.66-4.18.26-8.59,1.4-12.63,2.89-8.51,2-17.63,1.82-26.45-1.35-16.46-12.5-30-24.88-40-8.84-6.71-18.82-12.94-24.06-23.12-5.57-11-3.3-23.92.25-35.2.66-1.48,2.57-2.59,2.25-4.37-3.49.56-6.3,2.79-8.79,5.15l-2.72-.47a247,247,0,0,0-39.94-8.63c-10.29-1.36-20.65-1.88-31-2.66a184.74,184.74,0,0,0-45,3.05,24.17,24.17,0,0,1-6.34.58l-1.12-.86c14.89-7,29.63-14.69,45.54-19.22,34.7-9.83,71.13-12.13,107-10,5,.42,10,1.32,15,.53,5.65-.71,10.53-3.82,15.64-6.08,28.68-13.3,59.41-21.53,90.29-27.86a262.23,262.23,0,0,1,43-5.19,18.13,18.13,0,0,1,6.23.94,67.43,67.43,0,0,0-9,21.76c2.73-3,3.86-6.94,5.67-10.46,2.44-5.83,6.31-11.48,5.89-18.07-.6-14.94-7.87-28.4-10.75-42.87-1.76-9.4.95-19.05,5.77-27.13,6.05-10.34,14.35-19.07,21.92-28.28,3.5-4.2,6-9.14,9.84-13.1C401,121.76,417.1,116,432.64,115.5c-1.5,2-3.09,4-4.75,5.9Zm-23.81,12.71c-3.75,1-6.16,4.65-6.93,8.28.61,2.16,2.82,4.05,5.14,3.73a13.14,13.14,0,0,0,6.5-4.46C411.06,139.45,408.6,133.64,404.08,135.23Zm14,3.87c-3.2,1.53-2.71,7.61,1.35,7.28,3.65-.43,3-4.82,3-7.46C421,138.72,419.34,137.84,418.12,139.1Zm-28,21.17a6.28,6.28,0,0,0-2,6.15c.17,2.49,3.36,2.23,5.1,1.71,3.39-1.59,4.32-5.5,4-8.92C394.86,159.24,391.91,158.23,390.11,160.27ZM560,196.93c-2.07,1.57-2,4.44-2.06,6.77-.13,3.36.65,7.09,3.46,9.24,2.25,2.17,6.5-.18,6.13-3.22.09-4.25.69-9.73-3.42-12.4C562.9,196.75,561,195.73,560,196.93ZM337.06,256.22c-1.86.66-2.95,3.91-1,5,2.17,2.46,6.35-.47,5.31-3.39C341.3,255.7,338.57,255.7,337.06,256.22Zm-23.92,6.16c-2.65,1-5.65,3.6-3.66,6.57,2.36,3.19,6.57.22,8.34-2.11C319.71,264.13,315.83,260.69,313.14,262.38Zm-17,3.87a16,16,0,0,0-8.67,6.32c-.93,1.94-1.1,5.14,1.27,6.11,3.73,1.93,7.55-1.27,10.14-3.71C301.74,272.46,301.19,264.86,296.12,266.25ZM326,268.31a11.47,11.47,0,0,0-6.48,4.33c-1.41,1.92-.44,5.45,2.09,5.83,3.81.66,7.43-2,9.4-5.06C332.71,270.21,329.14,267.07,326,268.31Zm-18.94,10a9.51,9.51,0,0,0-5.23,4.53c.05,3.35,4.52,5.79,7.1,3.21C313.14,284.76,311.38,277.44,307.1,278.28Zm-44.88,1c-.11,1.48-.21,2.95-.32,4.44,1.24.13,2.55.74,3.8.32a6.26,6.26,0,0,0,1.75-4C266.15,278.43,264,279.37,262.22,279.25Zm17,11.13c-1.74,1.51-1,4-1.11,6a5.62,5.62,0,0,0,7.22-4.78C285.73,288.13,280.83,288.43,279.21,290.38Zm-77,34.9c-2.74,1.8-5.2,5.37-3.7,8.7,1.68,2.88,6.13,1.53,7.14-1.3C207.57,330,206.45,323.9,202.17,325.28Zm-21,4c-3.47,2.41-6.69,7.13-4.47,11.36,1.51,1.81,4.53,3.92,6.62,1.72a13.55,13.55,0,0,0,5.87-14.08C186.5,328.2,183.4,327.33,181.16,329.27Zm29.78,18.19c1.25,1.88,3.57,2,5.59,2.22.47-2.35,2-5.6-.24-7.45C213.49,339.26,207.88,344.66,210.94,347.46ZM196,345.36c-6.68,1.59-10,10.72-6.35,16.44a4.47,4.47,0,0,0,5.94.79c3.77-2.49,4.81-7.39,5.37-11.57A5.24,5.24,0,0,0,196,345.36Zm-21,4.85a5.81,5.81,0,0,0-1.71,6.05c.79,1.82,3.13,4.31,4.92,2.09C182.05,356,180,348.05,175,350.21Z" transform="translate(-26.8 -111.27)" fill="#6da341"/><path d="M382.49,335.11c1.35-.63,2.71-1.26,4.11-1.82A27.8,27.8,0,0,1,400,341.36c4.71,5.11,9.34,10.29,13.71,15.7-1,1.2-2,2.4-3,3.61l-3-1.82q-.92,1.47-1.83,3a9.94,9.94,0,0,0-6.38,2.23,18.18,18.18,0,0,0-3.84-3.6c-1.68,0-3.43,1.57-5,.84l-.26-.81c.22-5.19.23-10.4-.06-15.58C390.09,340.26,385.57,337.85,382.49,335.11Z" transform="translate(-26.8 -111.27)" fill="#6da341"/><path d="M299.65,381.85c5.52-.48,11.05-.91,16.42-2.35-2,5.28-7.05,9.28-7.31,15.2-1,13.9-2,28.08-7.17,41.17a30.15,30.15,0,0,0-1.57,7.52,84.35,84.35,0,0,0-34.21-4.33,109.92,109.92,0,0,0-1.65-22.26,47.54,47.54,0,0,1,5.78-18.73c1.12-2.7,4.45-2.34,6.71-3.46,4.18-2.24,3.89-8.85,8.8-10.2,2.35-1.06,4.74.49,7.1.73C295,384.12,296.93,382,299.65,381.85Zm-17.83,18c-1.41,2-1.77,7,1.81,6.65,4-.14,5.11-5,4.59-8.31C286,398.12,283.16,397.53,281.82,399.84Zm-13.24,10.81c-1.78,2.06,1.62,4.41,3.62,3.66,1.66-1.57.69-3.83.31-5.69C271.17,409.2,269.4,409.27,268.58,410.65Z" transform="translate(-26.8 -111.27)" fill="#6da341"/><path d="M306.56,446.38c5.89-3.27,12.76-3.49,19.33-3.44-.71,1.9-1.12,4-2.47,5.62-3.91.08-7.82,0-11.59,1.24A41.3,41.3,0,0,1,306.56,446.38Z" transform="translate(-26.8 -111.27)" fill="#6da341"/><path d="M378,214a11.21,11.21,0,0,1,6.45,3.91c7.79,9.22,16.33,18,26.54,24.56,9.76,6.31,20.88,10.1,32.06,13a550.2,550.2,0,0,0,62.52,11.86c15.19,1.78,30.39,3.95,45.73,3.63a14.25,14.25,0,0,1-7.71,3.07,87.49,87.49,0,0,1-18.86-.56c-7-.84-14.13-.64-21.11-1.8-21.69-3.29-43.43-6.4-64.86-11.16-13.48-3-27-7.2-38.31-15.43-10.13-7.53-20-17.09-22.41-30Z" transform="translate(-26.8 -111.27)" fill="#b29c41"/><path d="M393.41,262.27c2.56-4.38,4.85-8.93,7.76-13.11a102.14,102.14,0,0,0,15.57,8c-6,11.17-12.54,22.12-16.65,34.17-1.91,5.62-2.19,11.69-4.63,17.16-3.16,7.86-9.14,14.07-15,19.95a120.76,120.76,0,0,1-27,19.82,62.77,62.77,0,0,1-7-5.82c8.56-4.5,17.28-8.92,24.87-15a53,53,0,0,0,14.48-18.58c4.4-8.69,6.27-18.42,11-27,1.56-3.56,4.2-6.83,4.71-10.73-2.29-3.23-5.53-5.6-8.52-8.13C393.08,262.84,393.3,262.46,393.41,262.27Z" transform="translate(-26.8 -111.27)" fill="#b29c41"/><path d="M41.22,321.5c7.72-1.45,15.61-1.51,23.44-1.79a253.35,253.35,0,0,1,37.55,1.74c18.69,1.73,37.47,4,55.52,9.34,1.42.26,3,1.29,4.36.33l2.84-2.55-3.34-1.69,2.72.47c2.49-2.36,5.3-4.59,8.79-5.15a27.05,27.05,0,0,0-11.18,11.63c-1.64,3.19-2.68,6.7-4.84,9.62-17.54-8.16-36.33-13.33-55.32-16.77a282.26,282.26,0,0,0-54-4.71A54.19,54.19,0,0,1,41.22,321.5Z" transform="translate(-26.8 -111.27)" fill="#b29c41"/><path d="M296.58,334.84c1.36-.47,2.68-1,4-1.58,5.91,4.8,10.26,11.2,13.75,17.91,2.8,5.23,8.11,8.35,13.51,10.31-13.77,4-27.93,6.31-42.14,8-3.51.49-7.19.24-10.5,1.68-1.12.42-2.22.87-3.32,1.33.09-3.74.16-7.47.21-11.21a45.45,45.45,0,0,0,10.21-.92c8.53-1.66,17.17-2.73,25.63-4.76a33.2,33.2,0,0,0-6.44-8.71,37.09,37.09,0,0,1-7.35-11.33Z" transform="translate(-26.8 -111.27)" fill="#b29c41"/><path d="M428.68,113.2c6.49,1.5,12.59-2,19.06-1.93,16.65-.16,33.13,6,46.13,16.29,3.56,2.59,6.25,6.15,9.72,8.85,2.07-1.82,4-4,6.67-4.88,6.54-2.58,13.71-.85,20.47-2.12,3.92,1,7.93,1.57,11.91,2.3,1.39.33,2.8.56,4.24.78,3.74,1.42,7.14,4.33,8.22,8.31a51.36,51.36,0,0,1-.86,24.42l-2,0c5,1.88,9,5.46,12.9,9,4.56,4.57,9.19,9.56,11,15.94a107,107,0,0,1,4.14,30.56c-.14,2.55,0,5.87-2.47,7.43-3.38,2.27-7.62,0-11.19,1.47-4,1.94-5.66,6.81-9.81,8.58-4.46-.21-4.83-6-5.82-9.37-.28-2.54-3.39-2.43-5.28-2.33-6.5,0-8.74,8.39-15,8.91-3.27-2.44-3-6.91-4.34-10.37-3.63-1.37-7.84-.6-11.69-1-2.15,2.66-4.45,5.21-6.42,8l2.45.3c3.81-2.53,6.86-7.72,12.12-6.61a22.89,22.89,0,0,1,1.76,9.11c-.33,4.29,5.22,4.8,8.29,5.65,3.24-2.65,5.47-7.17,9.79-8.1,3.67,2.46,3.36,7.31,3.74,11.19.13,2.6,2.84,4.16,5.25,4,2.86-3.1,5.12-6.81,8.57-9.33a3.33,3.33,0,0,1,4.69,1.3c1.76,3.81,1.25,8.11,1.52,12.17.72,1.58,2.07,2.73,3.14,4.08-2,3.71-5.54,6.26-8.38,9.31-3.61,3.5-6.69,7.86-11.49,9.81-4.68,2.15-10,2-15,1.95-22.61-.47-44.92-4.48-67.18-8.08-16.47-2.94-33-5.7-49-10.91-2.85,5.18-5.16,10.64-7.79,15.94-4,8.84-8.45,17.72-9.79,27.46-2.12,11.22-9.17,20.61-17.11,28.47a71.43,71.43,0,0,0,8,2.63c3.34,1,5.82,3.57,8.26,5.92,7.05,7,14,14.47,18.26,23.53,1.06,3.15,2.13,7.84-1.05,10.1a72,72,0,0,1-8.89-10.38c.1,4.36,2.82,8.63,1,13-.55,1.13-1.21,3.25-2.89,2.64-2.43-2.16-4.26-4.89-6.42-7.3-.58,1.69-1.2,3.37-1.95,5-7.59-4.62-9.6-13.66-12.28-21.47-.93-2.88-1.7-6.91-5.3-7.42-4.95-.35-9.9-.63-14.84-1.08-3.05,1.67-5.86,3.74-9,5.26,6.75,4.64,12.29,10.66,17.42,17,5.41,5.11,9.56,12.79,6.8,20.33-5.32-.92-7.88-6.39-9.82-10.83l-1.06.47c2.12,4.43,3,9.76,1.38,14.47-.31,1.59-2,1-2.93.36-2.33-1.54-4-3.87-5.63-6.05,0,1.76-.05,3.53-.1,5.3-4.41-.45-7.56-4.33-10.15-7.58-2.83-6-4.57-12.49-7.3-18.55-.74-1.87-2.93-2.17-4.67-2.31-5.6-.68-11,1.44-16.25,2.91-1.49.31-2.15,1.79-2.31,3.17-.95,7.7-5.12,14.45-9.08,21a10.68,10.68,0,0,0-1.75,5.82c-.51,14.11-2.16,28.39-7.32,41.63a15,15,0,0,0-.75,7.54c15.36-6.46,33.11-6.24,48.61-.38A44.94,44.94,0,0,1,369.26,457c2.23,2.78,4.7,5.52,6,8.9a2.5,2.5,0,0,1-2.53,3.31c-8.61-.05-17.76-2.5-25.92,1.27-14.54.5-29.2-.62-43.69,1.12-11.6,2.73-23.6,1.74-35.4,1.95-14.4-.15-28.9.4-43.19-1.73-3.57-.76-7.49-1.09-10.45-3.44-3.05-2.62-2.88-7.13-2.23-10.74,1.37-6.34,4.37-12.33,4.52-18.91a50.22,50.22,0,0,0-2.2-16.56c-1.4-4.7-4.8-8.37-8-11.93a41.87,41.87,0,0,0-10.56-8.41c-11.14-6-22.26-12.75-30.46-22.54-7.54-9-10.28-21.19-8.72-32.68-39.93-18.27-84.64-22.79-128.11-21.71-3.38-.74-.28-4.16,1.57-4.93C48.5,309.62,68,300.34,88.64,294.86c32.28-8,65.85-9.92,99-7.74,8,.48,16.5,2.14,23.92-1.73A311,311,0,0,1,268.66,263a483.24,483.24,0,0,1,54-12.47c11.57-1.81,23.23-3.48,35-2.95,1.22-.2,3,.56,3.73-.82-1-16.65-10.09-31.44-12.3-47.85-1.1-9.68,2.73-19,7.58-27.15,7.5-12.45,18.43-22.34,26.49-34.39A52.19,52.19,0,0,1,402.89,120C410.89,115.89,419.9,114.44,428.68,113.2Zm-.79,9.32V121.4c1.66-1.9,3.25-3.86,4.75-5.9-15.54.47-31.61,6.26-42.37,17.82-3.8,4-6.34,8.9-9.84,13.1-7.57,9.21-15.87,17.94-21.92,28.28-4.82,8.08-7.53,17.73-5.77,27.13,2.88,14.47,10.15,27.93,10.75,42.87.42,6.59-3.45,12.24-5.89,18.07-1.81,3.52-2.94,7.5-5.67,10.46a67.43,67.43,0,0,1,9-21.76,18.13,18.13,0,0,0-6.23-.94,262.23,262.23,0,0,0-43,5.19c-30.88,6.33-61.61,14.56-90.29,27.86-5.11,2.26-10,5.37-15.64,6.08-5,.79-10-.11-15-.53-35.89-2.12-72.32.18-107,10-15.91,4.53-30.65,12.18-45.54,19.22l1.12.86-1.65-.11c-1.7.86-3.38,1.78-5,2.76a45.07,45.07,0,0,0,8.53-.37,54.19,54.19,0,0,0,6.5.47,282.26,282.26,0,0,1,54,4.71c19,3.44,37.78,8.61,55.32,16.77,2.16-2.92,3.2-6.43,4.84-9.62A27.05,27.05,0,0,1,173.1,322.2c.32,1.78-1.59,2.89-2.25,4.37-6,5.44-8.73,13.45-11.49,20.86-2,5.18-.78,10.81.73,15.95,2.26,7.74,7.3,14.38,13.34,19.6,7.18,6.48,15.83,10.94,24.1,15.85,9.1,5.45,16.66,13.79,20.32,23.83a53.56,53.56,0,0,1-.75,26.7c-1,4.09-2.71,8.1-2.74,12.38a6,6,0,0,0,4.32,6.07c7.45,2.14,15.29,2.41,23,2.3,6.79-.26,13.63,1.32,20.36-.2q-.21-2.88-.46-5.73a31,31,0,0,1,4.47-14.1c-2.89.37-5.77.79-8.66,1.1,4.9-3.5,11.21-2.56,16.86-2.54.87-2.32,1.76-4.63,2.62-7-7.94.12-16.14.51-23.5,3.8-3.56,1.44-6.57,3.87-9.88,5.77,2.41-4,6.44-6.38,10.4-8.59.48-3-.49-6-.51-9-.24-8.76,2-17.31,3.3-25.92,1.32-7.48,1.55-15.57,6-22a37.44,37.44,0,0,0,6.42-19.06,50.59,50.59,0,0,0-21.49-43,18.21,18.21,0,0,1-4.52-3.91,86.31,86.31,0,0,1,11,6.53c4.76,3.84,8.15,9,11.83,13.81a55.33,55.33,0,0,1,6.1,21.19c-.05,3.74-.12,7.47-.21,11.21l-.63.26A39,39,0,0,1,268.9,381c-2,4.57-5.67,8.33-6.84,13.27a69.45,69.45,0,0,0-1.9,11.45c.5,3.92,2.35,7.51,4,11.06a109.92,109.92,0,0,1,1.65,22.26A84.35,84.35,0,0,1,300,443.39a30.15,30.15,0,0,1,1.57-7.52c5.16-13.09,6.21-27.27,7.17-41.17.26-5.92,5.28-9.92,7.31-15.2l.32-.07a61,61,0,0,0,4.79-12.78c-7.09,1.5-14.17,3.25-21.43,3.69-8.17.49-16.37,2-24.54.87,3.31-1.44,7-1.19,10.5-1.68,14.21-1.74,28.37-4.08,42.14-8-5.4-2-10.71-5.08-13.51-10.31-3.49-6.71-7.84-13.11-13.75-17.91-3.79-4.53-4.15-10.47-3.55-16.09a50.79,50.79,0,0,0,2.83-5.73c.1.46.3,1.37.39,1.83a21.75,21.75,0,0,0-.93,12.46c1.85,5.46,7.45,8.17,10.56,12.78,4.45,5.31,6.32,12.7,12.28,16.71,7.12,4.56,15.94,4.44,24.06,5.52,3.08,5.52,4.08,11.85,6,17.81a21.11,21.11,0,0,1,4.56-2.67c1.35-.09,2.35,1.09,3.51,1.61,4.14-3.54,10.4-1.49,14.4-5.38-5.19-5.92-10.14-12.2-16.8-16.58a87.74,87.74,0,0,1-22.36-20.64c-6.09-8.15-5.52-19.7-12.87-27.07-3.4-3.59-8.59-3.61-13.06-4.76,4.56-.91,9.64-.61,13.44,2.34,6.86,4.6,8.78,13.1,11.41,20.39,1.95,6.79,7.4,11.63,12.05,16.65a62.77,62.77,0,0,0,7,5.82,120.76,120.76,0,0,0,27-19.82c5.91-5.88,11.89-12.09,15-19.95,2.44-5.47,2.72-11.54,4.63-17.16,4.11-12.05,10.68-23,16.65-34.17a102.14,102.14,0,0,1-15.57-8c-11.21-7.93-22.52-18.69-23.42-33.28l.29-.83c2.45,12.93,12.28,22.49,22.41,30,11.27,8.23,24.83,12.46,38.31,15.43,21.43,4.76,43.17,7.87,64.86,11.16,7,1.16,14.09,1,21.11,1.8a87.49,87.49,0,0,0,18.86.56A14.25,14.25,0,0,0,551.3,271a199.47,199.47,0,0,0,15.29-14.21l-1.43-1.92.26.77c-2.2-1.73-5.11-1.88-7.66-2.78C531,243.42,504.43,233.54,478.55,222a8.75,8.75,0,0,1-3-2.21,12,12,0,0,1,4.1-.43c15.35,1.07,30.76,1.11,46.08,2.75,12.64,1.56,25.43,1.79,38,3.94,3.93.56,7.94,1.47,11.92.76,2.83-1.57,2.38-5.28,2.52-8a103,103,0,0,0-4.56-28c-1.94-6.61-7.17-11.36-12-16a37.21,37.21,0,0,0-16.84-9.34,127.41,127.41,0,0,1-33.9-14.38c.36,3.22,1.69,6.19,2.7,9.23-5.07-3.06-5.23-9.53-8.31-14a8.11,8.11,0,0,1-4,5.29c.07,5.46,0,11-1.57,16.25q1.59,2.07,3.24,4.12c-1.3-.37-2.6-.72-3.89-1.06-1.24,1.94-2.47,3.88-3.61,5.87-3.67,4.15-8.28,7.73-13.76,9-6.25,1.65-12.8,1.1-19.09,0-11.92-2.88-21.49-12.52-25.16-24.1-6,3-12.61,4.55-18.67,7.39-5,2.36-4.2,8.65-5,13.18-1.75,4.51-9.06,5.28-11.46.9-2.53-6.23.24-12.76,1.89-18.79a37.15,37.15,0,0,1,11.27-8.38c6.53-2.49,12.77-5.69,19.37-8a18.66,18.66,0,0,1,9.83-12c-2.46-1.33-5.05-2.66-6.66-5,3.32,1.27,6.51,2.82,9.74,4.29a101,101,0,0,1,41.91-3.24c3.62.42,6.19,3.21,9.15,5-1-2.58-3.15-4.37-5.15-6.15-14-11.84-32.77-18.23-51.07-16.48C436.71,114.72,431.72,118.25,427.89,122.52Zm83.88,12.4c-2.48.51-3.9,2.73-5.45,4.49a39.77,39.77,0,0,0-9.85.94c-2.35-2.37-5-4.77-8.55-4.93-14.11-.84-28.78-.85-42.09,4.52a10.86,10.86,0,0,0-7.15,10.79c.49,6.33,3,12.35,6.09,17.83,4.47,7.91,13,13.07,22,14.08,9.29,1.59,20.42-.45,26.12-8.65,6.19-8.22,5.55-19.07,5.07-28.79q4.47-.12,8.95,0l3.12,3.61c.33-2.94-.88-6.92,1.91-8.95,3-1.52,6.45-1.62,9.73-1.81,8-.16,16.26.13,23.94,2.7,3.22,1.17,2.88,5.17,3.12,7.94-.09,5,.39,10.42-2.58,14.72l4.77,1.46A52.11,52.11,0,0,0,552,142.45a8.11,8.11,0,0,0-6.41-6.42C534.62,133.37,522.84,131.78,511.77,134.92Zm10.82,5.54c-2.17,3.93-4.37,7.86-6.34,11.9,3.41,1.56,6.77,3.22,10.27,4.57,3-5.14,5.63-10.53,8.79-15.59A57.71,57.71,0,0,0,522.59,140.46Zm20.74,2.34c-2.73,5.21-5.63,10.32-8.53,15.42-.1.24-2.71.87-1.42,1.38,3.72,1.21,7.48,2.31,11.29,3.23,1.87-6.27,1.87-12.84,1.37-19.3ZM417.39,159.4c-3.39,1.31-7,2.83-9,6a23.6,23.6,0,0,0-3.09,15.22c.25,1.94,2.84,3.49,4.52,2.25,1.91-1,1-3.44,1.31-5.17-.28-4.3,1.25-9.21,5.41-11.19,6.41-3.22,13.23-5.53,19.81-8.36-.53-2-1.07-4-1.59-6.05C428.89,154.4,423.24,157.15,417.39,159.4Zm66.13,62.16c4.86,2.36,9.87,4.43,14.92,6.38-.1-1.57-.2-3.13-.31-4.69C493.36,222.05,488.38,222.18,483.52,221.56Zm16.63,1.21c.3,2.09.63,4.2,1,6.29,1.45.59,2.91,1.15,4.4,1.66,1.57-1.58,3.16-3.14,4.79-4.67l2.14-2.45C508.38,223.18,504.26,223.05,500.15,222.77Zm30,2.37-1.2,2.12,1.15.27a39.28,39.28,0,0,0,1.51,6,38.51,38.51,0,0,0,5.58-4.77c1-.75,2-1.54,3-2.37A38.92,38.92,0,0,0,530.1,225.14ZM553.32,227c.25,1.62.53,3.25.84,4.87l0-.53c.21,1.76,1.2,3.28,1.91,4.87a57.53,57.53,0,0,0,5.06-5.41c1.17-.16,1.7-1.63,2.56-2.35A96.15,96.15,0,0,0,553.32,227Zm-39.8,7c3,1,6,2.05,9,3.15-.53-3.12-1-6.25-1.8-9.33C517.75,229.05,515.59,231.52,513.52,234Zm21.27,7.67c3.13,1.12,6.22,2.34,9.35,3.47a44.65,44.65,0,0,0-1.64-9.77A32.25,32.25,0,0,0,534.79,241.62Zm19,7.1c3.39,1.22,6.83,2.34,10.32,3.26a31.09,31.09,0,0,0-1.4-11.69C558.77,241.92,556.3,245.53,553.75,248.72Zm-173.17,84c-4,3.64-8.45,6.74-12.21,10.63,3.75,0,7.5-.36,11.25-.22,2.68.07,5.64,1.31,6.82,3.86,1.94,4.35,2.53,9.15,3.9,13.69l0-.18.26.81c1.56.73,3.31-.82,5-.84a18.18,18.18,0,0,1,3.84,3.6,9.94,9.94,0,0,1,6.38-2.23q.92-1.5,1.83-3l3,1.82c1-1.21,2-2.41,3-3.61-4.37-5.41-9-10.59-13.71-15.7a27.8,27.8,0,0,0-13.42-8.07C384.69,332.85,382.29,331,380.58,332.7Zm31.17,29.93c1.74,2.11,3.54,4.19,5.46,6.15.83-3.23-.46-6.31-1.88-9.15Q413.52,361.1,411.75,362.63Zm-18.83,2.09c.47,2.69,2.6,4.61,4.57,6.32-.13-2.59.51-5.6-1.3-7.75C395.46,361.77,392,362.9,392.92,364.72Zm10.93-.83c-1.82.52-3.18,2.84-1.65,4.41,1.41,2,2.51,5.18,5.27,5.52a13.21,13.21,0,0,0-.93-8.84A2.16,2.16,0,0,0,403.85,363.89Zm-30.32,12.92a8.7,8.7,0,0,0,6,7.2,20.9,20.9,0,0,0-3-10.47A19.1,19.1,0,0,0,373.53,376.81ZM362.31,381c1.68,3.46,4.06,6.76,7.54,8.6-.07-3.78-.34-7.67-1.93-11.15C366.58,375.5,360.46,378,362.31,381Zm-8.44.5c1.69,2.8,4.34,4.85,6.88,6.86a43,43,0,0,0-2.63-10.53C356.21,378.06,353.25,379,353.87,381.51Zm-97.32,55.33c.18,1.2-.11,3.16,1.45,3.58,1.84,0,5,0,4.8-2.62a71.18,71.18,0,0,0-3-26.42C257,419.5,256.23,428.27,256.55,436.84ZM277,448.36c1.94,1.74,4.85,1.93,7.23,2.93,8.37,2.62,15.63,8.77,18.61,17.15,5.25-.35,10.51-.73,15.78-1-2.09-5.85-3.95-12.57-9.54-16.07a59.72,59.72,0,0,0-27.57-9.06C278.25,441.5,276.58,445.73,277,448.36Zm29.53-2a41.3,41.3,0,0,0,5.27,3.42c3.77-1.26,7.68-1.16,11.59-1.24,1.35-1.6,1.76-3.72,2.47-5.62C319.32,442.89,312.45,443.11,306.56,446.38Zm18.77,2.35c9.09,3.18,19.83,6.94,23.47,16.85,5.28.05,10.59-.47,15.84.27a42.75,42.75,0,0,0,7.67.41c-2.9-5.53-6.76-10.71-11.95-14.29-8.59-6.18-19.3-8.72-29.74-9C327.38,442.77,326.58,446.5,325.33,448.73Zm-11.07,2.63c2.93,5.48,6.13,11,7.59,17.08,8-1.3,16-.87,24.08-.88-.84-2.85-2-5.74-4.28-7.74a41.34,41.34,0,0,0-21.91-10C317.72,449.3,315.92,450.38,314.26,451.36Zm-47.17.94c-3.19,5.1-3.41,11.45-2.21,17.21,11.18,1.83,22.58.48,33.86.89-.4-5-3.83-9.11-7.75-12-5-4-11.28-5.79-17.4-7.26C271.42,450.71,268.46,450,267.09,452.3Z" transform="translate(-26.8 -111.27)" fill="#030304"/><path d="M463.08,140.45a87.38,87.38,0,0,1,25.53-.26c3.61.44,4.81,4.45,5.08,7.54.79,8,.48,16.87-4.47,23.58-2.88,4.06-7.76,6.08-12.56,6.71-8.31,1-17.51-.51-23.71-6.55-5.38-5.19-8.28-12.53-9.71-19.74a5.72,5.72,0,0,1,2.83-6.5C451.32,142.43,457.26,141.35,463.08,140.45Zm-2.4,3.1c-3.73,6.4-7.7,12.66-11.25,19.17a33.67,33.67,0,0,0,8.33,9.69c3.25-5.32,6.28-10.78,9.23-16.28,2.5-4.74,5.62-9.12,7.87-14A79.35,79.35,0,0,0,460.68,143.55Zm28.7.5C484,154.78,478,165.23,471.81,175.5c5.92.31,12.7-1.23,16.08-6.56,4.85-7.22,3.37-16.34,3.07-24.52Z" transform="translate(-26.8 -111.27)" fill="#030304"/><path d="M563.05,208.48c-2.62-2.44-3.28-7-.8-9.78,2.87,1.71,4,4.83,4.6,7.94C565.72,207.35,564.6,209.5,563.05,208.48Z" transform="translate(-26.8 -111.27)" fill="#030304"/><path d="M522.59,140.46a57.71,57.71,0,0,1,12.72.88c-3.16,5.06-5.76,10.45-8.79,15.59-3.5-1.35-6.86-3-10.27-4.57C518.22,148.32,520.42,144.39,522.59,140.46Z" transform="translate(-26.8 -111.27)" fill="#8f9bb6"/><path d="M460.68,143.55a79.35,79.35,0,0,1,14.18-1.41c-2.25,4.87-5.37,9.25-7.87,14-2.95,5.5-6,11-9.23,16.28a33.67,33.67,0,0,1-8.33-9.69C453,156.21,457,150,460.68,143.55Z" transform="translate(-26.8 -111.27)" fill="#8f9bb6"/><path d="M543.33,142.8l2.71.73c.5,6.46.5,13-1.37,19.3-3.81-.92-7.57-2-11.29-3.23-1.29-.51,1.32-1.14,1.42-1.38C537.7,153.12,540.6,148,543.33,142.8Z" transform="translate(-26.8 -111.27)" fill="#8f9bb6"/><path d="M489.38,144.05l1.58.37c.3,8.18,1.78,17.3-3.07,24.52-3.38,5.33-10.16,6.87-16.08,6.56C478,165.23,484,154.78,489.38,144.05Z" transform="translate(-26.8 -111.27)" fill="#8f9bb6"/><path d="M500.15,222.77c4.11.28,8.23.41,12.33.83l-2.14,2.45a75.53,75.53,0,0,1-8.77.21c-.1.7-.31,2.1-.42,2.8C500.78,227,500.45,224.86,500.15,222.77Z" transform="translate(-26.8 -111.27)" fill="#8f9bb6"/><path d="M530.1,225.14a38.92,38.92,0,0,1,10,1.27c-1,.83-2,1.62-3,2.37a64.89,64.89,0,0,1-7.09-1.25l-1.15-.27Z" transform="translate(-26.8 -111.27)" fill="#8f9bb6"/><path d="M553.32,227a96.15,96.15,0,0,1,10.41,1.45c-.86.72-1.39,2.19-2.56,2.35-2.3-.25-4.58-.65-6.86-1,0,.39-.08,1.17-.11,1.55l0,.53C553.85,230.21,553.57,228.58,553.32,227Z" transform="translate(-26.8 -111.27)" fill="#8f9bb6"/><path d="M511.77,134.92c11.07-3.14,22.85-1.55,33.85,1.11a8.11,8.11,0,0,1,6.41,6.42,52.11,52.11,0,0,1-1.15,22.46l-4.77-1.46c3-4.3,2.49-9.76,2.58-14.72-.24-2.77.1-6.77-3.12-7.94-7.68-2.57-15.91-2.86-23.94-2.7-3.28.19-6.75.29-9.73,1.81-2.79,2-1.58,6-1.91,8.95l-3.12-3.61q-4.49-.17-8.95,0c.48,9.72,1.12,20.57-5.07,28.79-5.7,8.2-16.83,10.24-26.12,8.65-9-1-17.49-6.17-22-14.08-3.1-5.48-5.6-11.5-6.09-17.83a10.86,10.86,0,0,1,7.15-10.79c13.31-5.37,28-5.36,42.09-4.52,3.52.16,6.2,2.56,8.55,4.93a39.77,39.77,0,0,1,9.85-.94C507.87,137.65,509.29,135.43,511.77,134.92Zm-48.69,5.53c-5.82.9-11.76,2-17,4.78a5.72,5.72,0,0,0-2.83,6.5c1.43,7.21,4.33,14.55,9.71,19.74,6.2,6,15.4,7.56,23.71,6.55,4.8-.63,9.68-2.65,12.56-6.71,4.95-6.71,5.26-15.59,4.47-23.58-.27-3.09-1.47-7.1-5.08-7.54A87.38,87.38,0,0,0,463.08,140.45Z" transform="translate(-26.8 -111.27)" fill="#454548"/><path d="M417.39,159.4c5.85-2.25,11.5-5,17.34-7.26.52,2,1.06,4,1.59,6.05-6.58,2.83-13.4,5.14-19.81,8.36-4.16,2-5.69,6.89-5.41,11.19-.26,1.73.6,4.16-1.31,5.17-1.68,1.24-4.27-.31-4.52-2.25a23.6,23.6,0,0,1,3.09-15.22C410.39,162.23,414,160.71,417.39,159.4Z" transform="translate(-26.8 -111.27)" fill="#454548"/><path d="M411.75,362.63q1.77-1.53,3.58-3c1.42,2.84,2.71,5.92,1.88,9.15C415.29,366.82,413.49,364.74,411.75,362.63Z" transform="translate(-26.8 -111.27)" fill="#454548"/><path d="M392.92,364.72c-.9-1.82,2.54-3,3.27-1.43,1.81,2.15,1.17,5.16,1.3,7.75C395.52,369.33,393.39,367.41,392.92,364.72Z" transform="translate(-26.8 -111.27)" fill="#454548"/><path d="M403.85,363.89a2.16,2.16,0,0,1,2.69,1.09,13.21,13.21,0,0,1,.93,8.84c-2.76-.34-3.86-3.5-5.27-5.52C400.67,366.73,402,364.41,403.85,363.89Z" transform="translate(-26.8 -111.27)" fill="#454548"/><path d="M373.53,376.81a19.1,19.1,0,0,1,3-3.27,20.9,20.9,0,0,1,3,10.47A8.7,8.7,0,0,1,373.53,376.81Z" transform="translate(-26.8 -111.27)" fill="#454548"/><path d="M362.31,381c-1.85-3,4.27-5.51,5.61-2.55,1.59,3.48,1.86,7.37,1.93,11.15C366.37,387.77,364,384.47,362.31,381Z" transform="translate(-26.8 -111.27)" fill="#454548"/><path d="M353.87,381.51c-.62-2.51,2.34-3.45,4.25-3.67a43,43,0,0,1,2.63,10.53C358.21,386.36,355.56,384.31,353.87,381.51Z" transform="translate(-26.8 -111.27)" fill="#454548"/><path d="M277,448.36c-.45-2.63,1.22-6.86,4.51-6.05a59.72,59.72,0,0,1,27.57,9.06c5.59,3.5,7.45,10.22,9.54,16.07-5.27.27-10.53.65-15.78,1-3-8.38-10.24-14.53-18.61-17.15C281.88,450.29,279,450.1,277,448.36Z" transform="translate(-26.8 -111.27)" fill="#454548"/><path d="M325.33,448.73c1.25-2.23,2.05-6,5.29-5.8,10.44.32,21.15,2.86,29.74,9,5.19,3.58,9.05,8.76,11.95,14.29a42.75,42.75,0,0,1-7.67-.41c-5.25-.74-10.56-.22-15.84-.27C345.16,455.67,334.42,451.91,325.33,448.73Z" transform="translate(-26.8 -111.27)" fill="#454548"/><path d="M314.26,451.36c1.66-1,3.46-2.06,5.48-1.5a41.34,41.34,0,0,1,21.91,10c2.3,2,3.44,4.89,4.28,7.74-8,0-16.11-.42-24.08.88C320.39,462.34,317.19,456.84,314.26,451.36Z" transform="translate(-26.8 -111.27)" fill="#454548"/><path d="M267.09,452.3c1.37-2.35,4.33-1.59,6.5-1.15,6.12,1.47,12.39,3.28,17.4,7.26,3.92,2.88,7.35,6.94,7.75,12-11.28-.41-22.68.94-33.86-.89C263.68,463.75,263.9,457.4,267.09,452.3Z" transform="translate(-26.8 -111.27)" fill="#454548"/><path d="M381.39,206.45c4.57-2.54,9.61.62,13.62,2.86,10.14,6.81,19.37,14.95,30,21.08,10.08,6,21.15,10.13,32.27,13.76,17.54,5.34,35.5,9.11,53.45,12.74,12.15,2.53,24.6,3.2,37,3.37A53.66,53.66,0,0,0,565.92,257c-.13-.35-.37-1-.5-1.38l-.26-.77,1.43,1.92A199.47,199.47,0,0,1,551.3,271c-15.34.32-30.54-1.85-45.73-3.63a550.2,550.2,0,0,1-62.52-11.86c-11.18-2.9-22.3-6.69-32.06-13-10.21-6.56-18.75-15.34-26.54-24.56A11.21,11.21,0,0,0,378,214C377.93,211.14,378.55,207.81,381.39,206.45Z" transform="translate(-26.8 -111.27)" fill="#fcdf5d"/><path d="M393,263c3,2.53,6.23,4.9,8.52,8.13-.51,3.9-3.15,7.17-4.71,10.73-4.69,8.56-6.56,18.29-11,27a53,53,0,0,1-14.48,18.58c-7.59,6.07-16.31,10.49-24.87,15-4.65-5-10.1-9.86-12.05-16.65,6.87-3.34,14-6.06,20.95-9.29,5.95-2.72,10.48-7.7,13.86-13.19,4.56-7.13,9.13-14.26,13.59-21.45C386.59,275.79,389.4,269.2,393,263Z" transform="translate(-26.8 -111.27)" fill="#fcdf5d"/><path d="M45.7,318.64a184.74,184.74,0,0,1,45-3.05c10.34.78,20.7,1.3,31,2.66a247,247,0,0,1,39.94,8.63l3.34,1.69-2.84,2.55c-1.37,1-2.94-.07-4.36-.33-18-5.34-36.83-7.61-55.52-9.34a253.35,253.35,0,0,0-37.55-1.74c-7.83.28-15.72.34-23.44,1.79a45.07,45.07,0,0,1-8.53.37c1.64-1,3.32-1.9,5-2.76l1.65.11A24.17,24.17,0,0,0,45.7,318.64Z" transform="translate(-26.8 -111.27)" fill="#fcdf5d"/><path d="M266,340.14c9.48-.93,18.75-3.08,28.15-4.53a37.09,37.09,0,0,0,7.35,11.33,33.2,33.2,0,0,1,6.44,8.71c-8.46,2-17.1,3.1-25.63,4.76a45.45,45.45,0,0,1-10.21.92A55.33,55.33,0,0,0,266,340.14Z" transform="translate(-26.8 -111.27)" fill="#fcdf5d"/></svg>